<mxfile host="app.diagrams.net" modified="2022-06-30T07:34:29.834Z" agent="5.0 (Windows NT 10.0; WOW64) AppleWebKit/537.36 (KHTML, like Gecko) Chrome/102.0.0.0 Safari/537.36" etag="rslfu_lKFBGzoEvYfMwE" version="18.0.4" type="github">
  <diagram id="4flXGGzXFifgULeIPLUZ" name="Page-1">
    <mxGraphModel dx="1673" dy="829" grid="1" gridSize="10" guides="1" tooltips="1" connect="1" arrows="1" fold="1" page="1" pageScale="1" pageWidth="827" pageHeight="1169" math="0" shadow="0">
      <root>
        <mxCell id="0" />
        <mxCell id="1" parent="0" />
        <mxCell id="WaN_mvOq7KSIRF2AP4x1-29" value="" style="shape=stencil(lZTZcoMwDEW/xq93ZMnrc5r+R2ZCClMaMoR0+ftCKWnM4pm+CXGPLV3bUrK7lodLoZiuXdu8Fh/VsSuVPCnm6lwWbdX1kZK9kt2paYuXtrmdj+P35TAoh+iteR9W+Bw5AtEAMX2NCRPgw0/medTX1TmrF0Ta1usFIAbaZoAIsgnAFhS3Ae4LcCmgIWYbEAbHBNAGTrYBo+F8AgTYzAaWQSHteeppVe8IhhM9wemM3s3ruZu8qveMmK7PMJn6vZ/X7yG8rQ8E1v8xNCxOoHdI+wwgEEkdlewRBANJWzAGNuNpcDDpLbIOOmNquN+BCXAeLvNyYu/SzNU4neM6IPDpSxiWyDStafHYHlK/SB/8zYJTVdfjKHn8P58dfWqcO7L/Bg==);fillColor=none;" vertex="1" parent="1">
          <mxGeometry x="79" y="28" width="12" height="20.5" as="geometry" />
        </mxCell>
        <mxCell id="WaN_mvOq7KSIRF2AP4x1-31" value="" style="shape=stencil(lVfZctswDPwavWIIArye0/Q/MhOn1tS1M47T4+8LjSo3PLyt32R5lyKAxYKc5OFt//S6m7x7u5xPX3c/5ufLfpJPk/fzcb87zxd7muRxkoeX03n35Xx6Pz6vv1+fFuTy9O30fVnh58pLgZxbWN79Wt+47cXnFX+Yj//AFwb4RKHGe8rxNj47kljhlZIHeFuOK3ygiNYPVLTC2wYV4Au5ej+FYrqNL564VHhmyuADJZDUAbCSC4AQKeeaELclxoRMWofMmYLcJrBzbZGtygmoYsSwwtz5DaUCKjdixLsZmRLI7YAhDuppxPAkQCEjhpJHEukKKKbico9EJFEC1ehFKIUEiVC2PF7blMkhEXZ9oSYQIKm+8VRJ8j2drRFaWW8dmmBfpEwsNeG6yTFB2sIFUxOIIeY2rcHEBGKI2mYpyFb7ISGULYlXQoByDZF8s6W4JXpMYArNlsxugIVrJ77oiEEM2mkpYo+VTkvRKgMKJ52WYiAP6iCdlmIiB2JYxkgTQ4aD1LyuSWsyLSFCN6mTJw8qPSCYukDhBoQApTEgmC+hLXUNlAoFFDS3zpcZaskGWyO+xRZADNy1aFZ4guDUqjVbSwH3ZjvB1DaTLUsgBvbtGcvMEwXdeUBx2wpjH2vFXRhuqLMMc/8MIta2F4oSA+FJ68M2vzw6bLStYwPSAxV1A7pYDcE0HOFRL/f4vGX4P/HWBaBtOvyHM8cfgj38vRK8zIfDeqP4+H97hbBX6/VDHn8D);fillColor=none;" vertex="1" parent="1">
          <mxGeometry x="81" y="28" width="8" height="293.5" as="geometry" />
        </mxCell>
        <mxCell id="WaN_mvOq7KSIRF2AP4x1-32" value="" style="shape=stencil(lZfZTiMxEEW/pl9LXmt5BuY/kAiTFiFBIbP9/VSmFQZbxJ375tj3dGqzy57y3fv28W0zpfB+Oh5eNr/mp9N2yvdTSvN+uznOJx9N+WHKd8+H4+b78fBj/7T8fns8K8+j18PP8xd+L1ygEM5QCn+WiZwp538z3xb9bt63em70MVKM1/WRSm30TCzX5Zk0NvJCwtfllVIvj4OvC3Fq5B/ef217APX+7wHRC4kBeg8mF0RfiSsQnmRU2nDqsBa8VIK0xZCoDgzKTNoGKI7LoQTKrQfusg5MKvlSLx9AHcaoMFmbA4/CKEjVY94WxcqOqYkkQkClYhCgFBkBOFCBfOAEmsSFMmYSU6wQIKQYYFQhQGK/ndcAjxLktGSwNKRcqv9WoJJiJjEJVBoiVDFAL/vrdkAVAuxyqNwIaKAKRUm9rUEmqR+MBQIyMZRp9U4JlbdWMsxpAfeDKiWoNNT6fr4CWKAEmWSxv7+sAwblwRK4gcyXu7NVhl3UCoW2lkodNkUHuntMHV8ErPaJ43Fjd0Bak2Tcp437TMu47TrAbeJ0JUrSX05sJUrSn94xjO9XTohihJ99GSUKTHRN5QbCBCM8WaDnfrcMKMFgPqzvjmvEp/XriA/+v56e591ueXx9Xu9fWz61vNTyw18=);fillColor=none;" vertex="1" parent="1">
          <mxGeometry x="81" y="322" width="580.5" height="3" as="geometry" />
        </mxCell>
        <mxCell id="WaN_mvOq7KSIRF2AP4x1-33" value="" style="shape=stencil(fZNJbsMwDEVPo+2HKGriOk3vESBObdSNA8edbl8bLlrTrbSjqP9EcTJ8uLenW2OcvU/j8Ny8d+epNfxgnOuubTN202wZPho+XIaxeRqH1+t5Pd9Oi3KxXoa35YWPlbOwdoGc/dw5Hld53103ckrwQekFLpb13iNHpXcEojIQGdZpICOkCiAgHYEJ4stAZlDWgCDkMiAeLArwEYErRbJ/qhocUi1EBrEGYjUJsYi6D3PhSMpAEnivgR/P/3VNcDrrFBArEYKHIwVkggtlgBNYNyInSGWYKCLr2ZCAXGsE7b+0ac03MRu/u3Hp+n5dre39fpdm17qHfPwC);fillColor=none;" vertex="1" parent="1">
          <mxGeometry x="658" y="318" width="13.375" height="18" as="geometry" />
        </mxCell>
        <mxCell id="WaN_mvOq7KSIRF2AP4x1-34" value="" style="shape=stencil(lVXLcsIwDPyaXHdsyy+dKf0PZgglU0qYQF9/X2c8oTgOark5zq6ltVZyQ6vzfnNqG6POl6F/bT+77WXf0FNjTHfct0N3SauG1g2tdv3Qvgz9+3Gbv0+bETmu3vqP8YSvzGOQGklGfecNBZU3njP80B0luIcT4JqgTIHXGkHfJxgN40uCg3ICwcHFOcELEUjDlhJ0gPMCIYJCSYhiStaB3CMRHMHyIxpcVYZ00TrcJ3gClykxgpCRD7C2wDtEQbJPx5V3lCQJAoKBKhUbMAl4mtsiCRJ8FypXeJAV8B6h1KsVjERgqJkpwrSzSIhmssBVsZxSDDC6lCzbjjViGcHJGjj1bhnBp94QXKHVdThMjCC38wIjKnAUkoqIZSUiwwgXy9WIYQdthIslhBkhwkm1rsx6I+u//fkHo54ZzJOu5alU+YnlITP6cxbBT0213NNTna54Cy/0aFVpnnsjLX6foV13OORX7Pb//NlKW/nJo/UP);fillColor=none;" vertex="1" parent="1">
          <mxGeometry x="45" y="25" width="10.75" height="25.625" as="geometry" />
        </mxCell>
        <mxCell id="WaN_mvOq7KSIRF2AP4x1-35" value="" style="shape=stencil(lZTZbgIxDEW/Zl6v4jibn2n7H0gMZVTKoIFuf9+MRrQ4pZZ4y3JPEts37nh12q2Pfefd6TyNL/3HsDnvOn7ovB8Ou34aznXU8WPHq+049c/T+HbYLPPjelbOo9fxfT7hc+EcnJsh776ahadFvh8OV/KAnO6QF8Ss5BFsyMmhFKUnb55ft6N+PmUQG0BE0DfUkEoygIIQFcCMbDzJEwIrIDCcGEBsSxA9ggVIW4REl7zdBDggegVkgs8GIPCiAUE0slRDbLJUEsiIIRQUUoAQMv0PxADSVpJkVjpKGzQ526wpweW7iFzdqe+QAg4GkCHafhIRjdIVBvM9eSoFSdpKZONJ4i/+/wGqObwBVHPo0tU0iPXn3J8mk2pjMIK4RYTmE9XBb0/bDvv90hKv99seWJeW/smP3w==);fillColor=none;" vertex="1" parent="1">
          <mxGeometry x="683" y="313" width="21" height="22.625" as="geometry" />
        </mxCell>
        <mxCell id="WaN_mvOq7KSIRF2AP4x1-36" value="" style="shape=stencil(lZJNDoMgEIVPw3aCDCCubXsPE7GSWjFo/25fCbGVak3cPd68DzLMEMz7uug0YbQfnL3ohymHmuCBMGbaWjszjIrgkWBeWafPzt7aMpy7wie9utq7v+EZuIRSoNRjjL6C9TFOAWhMOwMyDiLbkVcIqdqRlwqQR3mGoJINgE7lCUAExP8AVyBFBHABagNACTxuWajNF1gCkkVAmk6/sAoI4HELs7GsAouhLYFRfIdemaYJOzOv/y7JaIUFw+Mb);fillColor=none;" vertex="1" parent="1">
          <mxGeometry x="679.5" y="318" width="18.5" height="3" as="geometry" />
        </mxCell>
        <mxCell id="WaN_mvOq7KSIRF2AP4x1-37" value="" style="shape=stencil(lVjLbhsxDPwaXwm9SFHnNP2PAHEao2kcJOnr78uFoc2KWk/Q29rLWYnkcETxkG/eHu9ejocU3t5fz9+Pv0/374+H/OWQ0un58fh6erenQ7495JuH8+vx2+v55/P95ffL3WK5PP04/1q+8OeCCxTCAkrh7+WPGNa/vl4AT6fnARDjAGiNYkX2WUd7oVKu20dKdbRPVBTZaxntbUW5bp9IZbBX6V/YtS+U8mifKcTr9kw6xqc2yvm6fSVx9gL9bVTaaF8oMohPJB4zXBNJA4Dc47cBIA8iU55WCIASsVJ0K8QehX2AUksjIJCCIBnrKg8AaVRBlo0W7ABKAa1QqIx5E6aGeCeeSJJ7GPYBStEBcGVmK82xFBhTO1uaHKD0VO4Dsic3p17e+wCmMiaOAzUEsB2P5V8a9kE7+1eA9k3uAxqlka2lkiYgAKETYQVI9+oaoLoVCjVQD8U0z/mQqWCAuC3FXiH7gCnTtskMomSAMpLPAt0wQEcfcoWZXlzMEwDIjAUxOIClEjldiJuPUkRSzxSTz0NCTjOJS5xpIdBWY45nayUGImAAcVtqxChKlcJ/VZwBsgNgMTaAiAdkcAJZQUb1W2JEb6U6iQA6spbXoy4tnwBhtQ14ABYBc7G6PAg1sCUTxjYB0Llu0ut1SWCmmSd627kK1NtOgzYpH6IGa8/rJqxIBLj1IG4TBypOoiffJ5kWk5ngt8TAaSm9gjdhrWgFq+lJvVGDJdJbkY3MBOS0+vYnY/JZ7+LOh1xgiVp35HqNHGE9WP/lyJfwsWsdXioeEIEPNftOIOESrZN6J0y+yl6XFgBaQTrVNoAEqFFN+UZdsu49AWpU7Tq3AvD5sNwVXB5SD8M1QB19iLj90eC7ylgg+QzgzulovTfQJV1fr806rB+N/Xax1k8n4zV7J2PGbeRx8kmw6gC0sPtdjs4etd1a+v33Yz8BpEzZ9wD4HmD3U1ebAtserb74LWHoXFCdHLDaQxFtFMZKi7gTM4CTSMsxkki7w8+lqSBIzW65ox4tdxXA0pb8XMIaXAY0bbkHcaVpgoMMA/iWgfsm9wF2+XJNunaV3Qewr2VrUyBA+r18c+FDXDVAcyt8Mp2Ym0OsqU09WxnPSwzgFE9wPbdJUwWfzwbww4PYvdofT4RpimYIJNu2RCveCQEVZAA3tpqGAfbwMeR7OD09XWaE2/d+KGh/XQaK+fYf);fillColor=none;" vertex="1" parent="1">
          <mxGeometry x="102" y="38.75" width="584.8333333333335" height="241.25" as="geometry" />
        </mxCell>
        <mxCell id="WaN_mvOq7KSIRF2AP4x1-38" value="" style="shape=stencil(lZXZcsIwDEW/Jq93bMnrM6X/wQyhZEoJE+j2902acYsIiPDmOD62pKul4sVxuzrUFZnjqWtf689mfdpW/FQRNftt3TWnflXxsuLFpu3ql65936/H78NqODms3tqP4YavkfMGiQaKzPe4Ew18/t15HoFdsz8DHMEkAQQPDgqQQEYCFjbdBoKBzQLwGawBEWQlkIpXV4Ho4R4Ckgd56YNBVEzKDOckEBCiAqQSxD8dCN7fBqwxMDKuMcGx8kRAlFInB7aK1wleAtkULa/HNcLIMPVvGk05RmYBnLl1PZtyyZ25BPcmxEeMIlcKYKbb1iFKtxOBFe0mFXFHawZdlJyefZPMcB5WcWBynnIpkHn2WI+g9IyJvx5JMd8yrCxPXWGbYPiB80TIUq8+DZXqp4gkM8haRKXlMSHKDOqvcJrAEfFCMVcayEzgTn+ZAimABNAv/qfEptntxiFz/v9yqvRb40Ti5Q8=);fillColor=none;" vertex="1" parent="1">
          <mxGeometry x="695.125" y="181.5" width="7.625" height="6.375" as="geometry" />
        </mxCell>
        <mxCell id="WaN_mvOq7KSIRF2AP4x1-39" value="" style="shape=stencil(pVTbbsMgDP0aXi3A3PLcdf9RqemCliVVmt3+fjCULY4aZ9HejDkH8DnYAg+35nSthZa3ceif6/d4HhuBD0Lr2DX1EMcUCTwKPFz6oX4a+tfuXNbXU0bm6KV/yyd8FJ6S4Exmafk5ZSRI+Z16LIw2djOGBecJwSMgruMVeEnw1oJmzv+5fcJjAF2t4xFURfGafX8AH2jBgcUrB3lvRuDxSSCLBM+/Bw0E6gCvv9GTHH8733gI1DDH+6vAUQPUxgUVeNyj6J0KzE6JNjxIX6AK/yTwKqFbfustGwwoSwkbfYZg3B6Cl6AV9cFMvXq/EwKEhXF80bPRsKprCn5nzSW2bRlV8/3lbEqpMtfw+AU=);fillColor=none;" vertex="1" parent="1">
          <mxGeometry x="711.2857142857142" y="183.75" width="6.714285714285779" height="6.25" as="geometry" />
        </mxCell>
        <mxCell id="WaN_mvOq7KSIRF2AP4x1-40" value="" style="shape=stencil(lVVdb8IwDPw1fT0lseMkz2z7H0jAqMYoKuzr3y9VxYYL9ZjUhzS5y/lsJ2locdwuD+smuOOp717WH+3qtG3ooQmh3W/XfXuqo4YeG1psun793Hdv+9X4f1gOyGH02r0PO3yOPAfnBlJwX+OERAy/9Xsa8bt2b+E5wNE8PqMUhQ8EzvP4KhCjIviIaAhUBacVPMHxPIEdWCswKM7jI6GQwv/k4CZeEjhoy/BpHp8yRMeTkYz9c10WbbggGgJFINoABYifJ3h3XeV4DvJeRrRdlFpVrwjJIxllu7adbRfZoeiQigcZIdUAig6pJGSj9cQja4WLPNzupYA8kbATy4zC2nWBN2KijKBjqnlgi8Bnj3cWgghJexD7wF0rRPvEXXtg+9Koy1kfuT86nAtYp7UeuiBG4SKc/IcgAWVyCyREI0tSIBMFOd9sd7YrTVujDn7v/U27243PxuX69J2oU+MbQ4/f);fillColor=none;" vertex="1" parent="1">
          <mxGeometry x="729" y="183.25" width="11.125" height="5.75" as="geometry" />
        </mxCell>
        <mxCell id="WaN_mvOq7KSIRF2AP4x1-41" value="" style="shape=stencil(lVbLbhsxDPyavRIiKVLSOU3/I0CcelHXDhynj7+vFos+JLlT6CavZ7QrcmbERR/ejk+vh0XC2+16+Xz4tj7fjot+WETW8/FwXW91tejjog8vl+vh0/Xyfn7ef78+bcht9eXyddvh+84LFMJGkvBjf8Dh96OPO+G0nhGhZAo2g3eSMoOPZD6DV4o8g2fimfPmTGUK72Qz582RdArPVGbqnwoZqI9QyC0+kcq/8ZE4tXgjBvjafWvx+muHu/hMqi2eScD+HChKQ/ACC8pC1lbI8Ym5CrItkRspOAI7eVsjx2fmTKktkgfKoMm1y7mtkmVy4Jra5tJWyZwiIlivI6udR5+UeiEZFqqUXkkRK1W5l1J0SoigvZZipAA6fYfA0MwjQXEf7hCM4twbhATk0Uiolkp5imBQfNsXt1oSJYuAkHrHCfa0lt5xjEO4tqlzHCdYpai949jIgZai9Y6rsSDA0zH1jmOFF6cNScwM5W1DFNcsFNAHG7K1QDv4kJSJHCjJx9yDbU5jKMFRJA2JoVDZ9SZmbnVHDvYvo4r+c/UMl20/S9XFn0nsZT2d9kHu7//7ya0+2qc+ffwJ);fillColor=none;" vertex="1" parent="1">
          <mxGeometry x="184" y="217.5" width="6" height="102.5" as="geometry" />
        </mxCell>
        <mxCell id="WaN_mvOq7KSIRF2AP4x1-42" value="" style="shape=stencil(lZfdbtswDIWfxreERIqSeN1171Gg6WIsS4o0+3v70TDahdpCh3eOcz5H5KFJZqKHt/3T627C9HY5n77ufs7Pl/1EnybE+bjfneeLXk30ONHDy+m8+3I+fT8+r59fnxblcvXt9GN5wq+VS9DTAmH6/X4jrTc+r/LDfDTyZOUNqnhyQiPPHUr19MNpKENvnl7Y6huwc/wMaPWlQ+qevhej5w6Vb+sRWIy+ViBHT1CsvhVI5ba+QO1G3xM0Jz8V8qDXJ+BtfQNpVr+RT62HagGB4vxARiDrsGiNeA4UYGuBZDeluYKQBQjQyVHWE9ugpQCSYzJCyhZgyM5boLYNZSdqjFdGFeoQdIPspBVlNFr8wiYc30wRt/KIodqgc/JbBXXoEiKKJpZiBEPCGNGBYnFwhlJihNZsjxEf9t5NCNQaIqpml2NEGdvZJtGgxBxsKRp5w2jkjQFTjGjRyJtAj0Xe1Y8WI8rYeDYJjuZKG36OVUn/GIl3EzKO1S1Ce34KEvjew+8mKFq7OifGyeE3UZ0TPHRdv6/rnGDr38Zs0ueVAfDnq84JtDWlNcM+MOxoS+lnB5Bx+jVyZ5MCbIHKfgx6AAtwheZk6crYq0WweXvLf4iNxeVfgsZlTS/+7uUv8+GwrvXX3497vN5a/wPQ4x8=);fillColor=none;" vertex="1" parent="1">
          <mxGeometry x="100.33333333333326" y="333" width="83.66666666666674" height="13" as="geometry" />
        </mxCell>
        <mxCell id="WaN_mvOq7KSIRF2AP4x1-43" value="" style="shape=stencil(lZXbbsMgDIafhlsLMBh83XXvUanpEi1rqjQ7vf3ImNQENme9I8Qfxr8PKNxd28OlUVZfp3F4bt6749QqfFDWdue2GbsprRTuFe5Ow9g8jcPr+Zi/L4fZcl69DG/zCR+Z06D1DFn9mTcMgnbfO4/Zvu/OC3sHNqztNRjBnsCtz795/NU+HadpBaABigJgwK49IAGTACDQGnAeyAsAlRp5Am8FgMsrUQDkvwGLJRCSTwkIJRARgiArVipFBoMCQBDXACM4IQ+uioEJglAZXpelwRHYCEAoE2e0XEzkyiC2iGCrftgiqmRvEdGXcWwoxbVSBlDwwK4EooMgJI8raUMAEwTg3hJfiPLfLqoJ58DfdalU9pKLVHA/PbCYTlaIgqtREMW2q+3L0kiL22g+dX2fJ/vyfznK01Z+BnD/BQ==);fillColor=none;" vertex="1" parent="1">
          <mxGeometry x="188" y="336.5" width="15.625" height="11.5" as="geometry" />
        </mxCell>
        <mxCell id="WaN_mvOq7KSIRF2AP4x1-44" value="" style="shape=stencil(lZbZTgMxDEW/Zl6tOJvjZ5b/QKKlI0qLStn+HlejAnGFg9/SmXumduzkekpXL5u759UUw8vxsH9cvc/3x82UrqcY591mdZiPsprSzZSu1vvD6uGwf93dL7+f707K0+pp/3b6wsfCBQjhBMXwqR7cLvLtvLPkGCBWhz4ilOzQJ4RGlh5zr6+D70fu9LkCFkufU6cvBciMp1CnrxlytPStdnpKENrfetTxE0NDS9/6eFqBYnw/aj0HSIY+Ayp9hpj+1svulV5PgMb+EHDfD8wQjPpKO1JTDWp3NObzhv+bkKCqi5BtjeQjqi70iEhBl2JISKn0YR4QBOSLKiMEJyEHxhdVlqh8RJEuiT4iAWUfUXWrDwkGRhdRE0RfHlX6ypdHZUBfVITeepB0ou8MEkFwRsXeCrZ4vmr+TWRITqJCdRLsva8YvTVn6St1TdvXrtz6rHzA9lV5nfv6cYRkGBlfHPJGUKwcGlD/Dy2Y1i0pKu8eeLEAyrwHZv9r27/HiWzb9yWRCyC7iMFIdJmGuG4b5K3OHpumL4AqBdpToABq7ErQum6Sxc9Eu56322Ug/v1eT8DyaJme080X);fillColor=none;" vertex="1" parent="1">
          <mxGeometry x="119" y="360" width="87" height="13" as="geometry" />
        </mxCell>
        <mxCell id="WaN_mvOq7KSIRF2AP4x1-45" value="" style="shape=stencil(lZTZbsIwEEW/Jq9XY4/XZ0r/A4lQolKCAt3+vnYj2k4KA3lzxvdEdxZPw4vjdnVoG0vH09A/t+/d+rRt+KGxtttv26E7lVPDy4YXm35on4b+db8evw+rqqynl/6t/uFj5Dw4VcjS5xhwcPQdeBzlu26vyU2Asdf1BtkJPRNivK4nuCDtWJCqJ5L6COtn6H2EcZp/kvkGj8zX9RbGC31kBEUf4Cb6rNfTILEAEsNrQIKVGaSIbJQMPJIRQDawCsBlYiYAnyMXAcegCeARtKEzCBMgIilAKI6zBBKyBmQkCRj6GZWLRIxwdhZRGpWiNBUQNSCfR/nOTpS6ewncGI5qQFq6Ma61jDLrYBG090P/XxydXd5LcASHWUTdO2kWkRDzLGDa7HL43bGbbrcbV/Tf++lOLqFxn/PyCw==);fillColor=none;" vertex="1" parent="1">
          <mxGeometry x="206.375" y="361.5" width="11.625" height="11.375" as="geometry" />
        </mxCell>
        <mxCell id="WaN_mvOq7KSIRF2AP4x1-46" value="" style="shape=stencil(lVfZUiMxDPyaee2yJV96BvY/qCJspggJFbLX36+mprKLDWjQm+N0e3S0JXnim9f9/ctuovB6OZ+edr/mh8t+4tuJaD7ud+f5oquJ7ya+eTydd9/Ppx/Hh/X3y/2CXFbPp5/LCb9XXkAIC4nCn2Hj2wo/zEcLHhlNHHgqKNWBZwF5zk8J1YPPBZQd+FJRo4Xn2OFrQUgWXrjDNwbz5/iIlnu8ILfP8YzU2y+Mavir1vb2SEEzzm9ovb/SIMWwP0IGAQVbcTEjFR9DjfIxiJCij5FHxzcZ7Rr4rzJYxeH7BjOIfYyM7LSqolUXI+mlSD4GIftUote+OK0qEPExBNEXqxzHcrDJ0OtPPkZGcDIKsi9WuYF8jBJAzccgRJ92S0L06aqUd+1ri1HHgrvJkGuD+CqjRlRfBit7M1gzovMb2qh9VbQ2BF+sqiD5MtgCmk8ljcaauNGitAMPDUcqhAyCjhxDk91omhnSuy356tbHhIrY51vsMac15MEHu+/rGCF97oTMQUfiWKJ1x5rs1ICQXISE3BdoCShGlDSI0tccjVs2pKF5pf5SLGIxwqrK4d7pjfFOBKFPXGlmHpRQeqe1kiZDfG/k/2+kjaZNHzDSRiZkLIK8ESetgX2udRAtlpp0ih0Kgf1OWO7wUM9oyLUu/j96HufDYX0zvf1/fCTp1vrA4ru/);fillColor=none;" vertex="1" parent="1">
          <mxGeometry x="561" y="400" width="80.875" height="12" as="geometry" />
        </mxCell>
        <mxCell id="WaN_mvOq7KSIRF2AP4x1-47" value="" style="shape=stencil(lZTdTsMwDIWfJrdWHOf3eoz3mLSOVpR26gpsb09KBCwJc9W7NPUXx/E5FrS7tIdzI5S8zNP42nx2x7kV9CSU6oa2mbo5rgTtBe1O49S8TOP7cEzf58MSuazexo/lhGviUEqQcsGUvKUtkqDpe+c5EX038ITWEBgiOCDKAIvgNAMYUDoDnALrGIDKDM6CDAxQ1eA1OP8Y8AZ8niEgkGSAKkOwbNFOA7oc8BDwMWAdmDzDXWv+JUwoU6wSsix7jdBq662oat5K4cpsfFr0VQYCzXQbqyK8B8k1r4pHMIp5pbIRjtiS8Uf+vw6KFmHOr8RnDGvq2tIGrNkQT9EfjEErGSnenwiIuYjiDGHji/fx4DjJlXooFRoXfxPz1PV9Grj3/8sJG7fSdKb9Fw==);fillColor=none;" vertex="1" parent="1">
          <mxGeometry x="645" y="399.5" width="15" height="11.5" as="geometry" />
        </mxCell>
        <mxCell id="WaN_mvOq7KSIRF2AP4x1-48" value="" style="shape=stencil(hVfLkhoxDPyauaps2Zbl82bzH1u1bKBCYIslr7+PKDITpIHObRjUHkndengqTx/bl/fNxOnjfDp+3fzcvZ63U/k0Me8O281pd7anqTxP5enteNp8OR2/H16vv99fLpaXp2/HH5cTfl1xiVK6gDj9Di8+X833u4MzL+zMK+WMzNWbD1J5bJ5JujPPSgkcz8TV2dubDM4vxNnbDxJ+bF+Jh7MvQqM/tm9U1WenUmuP7YXU+98YxqvExdvr7OH9fCZiz64YX4DezFS9R6I0EGONUnOAXqhUAFDKXhK9Y44tJeIAaqpCgD6HuAAKKchSKZQ9zSpUAaCu0qqWJQWATsUTNxJ1kNZW5zpZAKZs8AWxUvDSGxZVAYARYzCAAGl0E7dEAANxG02hmi0GQYBKPcSQaQAtWdZTjQDUjizrrUUeGKTVPA7E6aAKYrgk0QdtTgrgYdRZmwug00AxNOorQANaGkKNIyABeY91AQkJcqmvviDEyKUe5a1t5v4+wJguEZBRDNZmAg91bs6PABxiKNQQcbrKkqkVp1VDDCZHME0MUH0MXbE0+qoZd1iiJg3xWrIqVxS0UAkuVZwlmdvWzXxQMHLvAhoizno1R5fQUDRA4MGCLlitMWhbA0CrNMAIX1C4B5iWaqjpNDee+4BBKcibcecb1Hyr/J+8bVPzWrICQtLIabVKWo3CNI2YJsXrlQEkAKwIUV7HqgsMuDsYEW01USqu0Tio8VQcy7azABpcyezvMCDsCDhRWlyYbqj5i7CHfxeCt91+f71P3P4fLxD26nr5KM9/AA==);fillColor=none;" vertex="1" parent="1">
          <mxGeometry x="89" y="354" width="513.375" height="105.5" as="geometry" />
        </mxCell>
        <mxCell id="WaN_mvOq7KSIRF2AP4x1-49" value="" style="shape=stencil(lZXdbsIwDIWfprdHjp3fa8beA4kyqjGKCuzn7ZeuKiOpsMRdmp7Pce3jtJHVeb85tQ3T+TL07+1Xt73sG3lpmLvjvh26S141sm5kteuH9m3or8ft9HzajMpx9dF/jhG+J84l2DRSTD/TDoHob+N10h+6o6pnuKDoI4wt9CZAtAMY7AtAHIJVAAKbArACVgAb6hOch4kKIIixAHxE4seAJPjyhEjwSQHsnMANSDAKwHGONwPJgpSUWOClBBycfwyYOPf1DjBKp43AUQnkuikpRdjSGYmQRGkDmMsaRZCiJ8QyfsxGMpqeqNbLk/GTEn+Zf4B1j/UJvPCEU2xq/FyOW0ENomYiqScnmyhoNiVImVIK8EpKEmcH3Kaf9PvF5slyTxHLGynl4VDqmoc3VF/hERSjhrBwtoVVRiE3qupE3knasNHSfLaatrz4v8R33eEw/QPu39eXft6afhiy/gU=);fillColor=none;" vertex="1" parent="1">
          <mxGeometry x="326.375" y="472" width="29.625" height="64.75" as="geometry" />
        </mxCell>
        <mxCell id="WaN_mvOq7KSIRF2AP4x1-50" value="" style="shape=stencil(fVRJcoNADHwN164ZaTbOjvMPVxkHKsS4sJ3l9xFF7Fgk6DYM3aNWa6l4c253p6Yid76Mw2vz0e0vbcVPFVF3bJuxu8ip4m3Fm8MwNi/jcD3u5+/TbkJOp7fhfXrhc+Y5ODeRyH3NF97dr55nQt8dLUIp4LSOJ2SNTxHZr+MzXFL46BDzOr7cXrvhQ0Tidbz3KFoQB0QyCKKXFYHkpjYyFsFaEjGCkTIleNKEAm/kzB6+6Bwy2CgaiydZu5RBRtLBLZOOAWxICgkcNSGjDuuESIi8JHiLIJ4sIrDZGYlButLSGmRESBlB14EZbPRS9nDaVqm9FSEHZB3BNikXuFrhndl65U9j2MNcpDEXRUA0hrlE1Ho6PaNYggqCFiSzUIxZqMVSPTwynt6oQR2WhHBvlP8J0mba0ySuGZIeNuKdkW7z9MOQw++GPXR9Py/ox//LjSxX8zbn7Tc=);fillColor=none;" vertex="1" parent="1">
          <mxGeometry x="328" y="565.5" width="44.5" height="31.5" as="geometry" />
        </mxCell>
        <mxCell id="WaN_mvOq7KSIRF2AP4x1-51" value="" style="shape=stencil(lZbbbsIwDIafprdW7Bx9zdh7IAGjGqMI2OntZ1a1W3pwyV3a/l/k2P7dVHZ1PWzOu4rM9XZpXnef9fZ2qOxTRVSfDrtLfZNVZdeVXe2by+7l0ryftu3zeXNX3ldvzcd9h6+WM2DMHSLz3b7AAGh/3zy3+mN90vTkIKp6i5neIbDT9IkzvfcQw7weAWOmDwjEmp59po8IMc7rCdhm+oTg/LzeQcjjTwye5vURHGV6dmCV/dGAzw/AEXxSANfF2wMMqGWIu4L2LWH6qk/nyIPlIsJKmUMZEcCWRSWNRlhGSKuZIsIboELCARYSAYIrIxJwKiLENIXZDRZSLCPkHGUnD2lo1iVCzGzKOjGKYcu6JKbO0I8SiYYmXyRG3b5gWpkyKW+ShbHAMtjy+rEHVAatfOa8fKxPck7g8pBS7LaYBhhcXopkwWghyaHzkGI/TmeG5+j3FU2Xh0eJ4NSBPkGIH7VjTBEyH7GIcARRKcYEYaXztQYZJZf05AowcJL8zNWOknoPxhRCUu4SAlDuIwuk6UcdOHSdLP4uRvv6eGzvVf+/Dy9S8qq9hNn1Dw==);fillColor=none;" vertex="1" parent="1">
          <mxGeometry x="605" y="427.5" width="64" height="15.5" as="geometry" />
        </mxCell>
        <mxCell id="WaN_mvOq7KSIRF2AP4x1-52" value="" style="shape=stencil(fZLdbsMgDIWfhlvL2Jif6657j0pNF7QsqdLs7+0HYtVCJ7gzPucDDEfx4TaeroMivG3r8jp8xvM2Kn5SRHEehzVuqVJ8VHy4LOvwsi7v87msr6fszNXb8pF3+CocAmKGCL8fGs/FPsV5Zw+AurJr8NK2awtZ2/kdON/2Jxm58hMDUhtgvu93B1gDdW5kBMhVgEkn2DYgAqYeOXWkA9gkmwqwDrgDOAFbz+A8GNcGvAcKFRAYpPNKQSBIDXiwuvNv+C8Xu9Yvkoq/VF3iNJVQ7vXHFKZWSTAffwA=);fillColor=none;" vertex="1" parent="1">
          <mxGeometry x="657" y="447" width="18.5" height="18" as="geometry" />
        </mxCell>
        <mxCell id="WaN_mvOq7KSIRF2AP4x1-53" value="" style="shape=stencil(lZPbbsIwDIafJreWY+d4zdh7IFFotK5FpWzj7UmVDWqmRuLOcf7P8SmKN+d2d2oU4Xkah4/mO+2nVvGbIkp924xpypbireLNYRib4zhc+n05n3azcrY+h685wk/hjAfjZorwWjwWsDjei75L/ULvNCAJPQLiut57oCj0DmxY14cA2gi9ZvBmHYgaLEsgl6QrQADWAiADaNcBjfcS/whmsLWcHDj5hGGI8ZWqLYOptMk7IC/bShD9K3PzBKYCmBxPphTqRedFYAlEqg7iX1cXjf4FsvFY3EPqurL3y/vnRc+u8kl4ewM=);fillColor=none;" vertex="1" parent="1">
          <mxGeometry x="675.5" y="460.33333333333326" width="7.375" height="13.166666666666742" as="geometry" />
        </mxCell>
        <mxCell id="WaN_mvOq7KSIRF2AP4x1-54" value="" style="shape=stencil(lZTZbsIwEEW/Jq9XXsbj8TOl/4FEKFEpQYFuf19HUUIcmlH75mWOfWet/OZ63F3qypnrrWtf689mfztW/qlyrjkf66655VXlt5XfHNqufuna9/N+2F92vWW/ems/+he+Bs7AmB5y5ns4sGY6eh6AU3OeAQQfCiBF+LRubw3IF0AkJOUDO703ApQQZB3IPnApiRwsKwDDlD94Cx/XAe/AtgDyE6QBCRxLgBCsElWGM/8Bgl364BJIAwiycDrAKYkLglhKIjOK/BVgOwr4Yx6YYMvSyHHrt6tAQOQSMGrxMUPK0rAC9gogICkAgSiK4kPtWSTF5ejHQhvt9W6LPMq92yelF+Sh23T9Qoilv/mDoERUZLyeUpBdUiKaHOKiOxOMIikxIhUA6zmbTazJaYGjOZEX9wl4aE6nYYDO75cTMx8N09ZvfwA=);fillColor=none;" vertex="1" parent="1">
          <mxGeometry x="677" y="478.25" width="23" height="12.75" as="geometry" />
        </mxCell>
        <mxCell id="WaN_mvOq7KSIRF2AP4x1-55" value="" style="shape=stencil(lVbLbhsxDPyavRKUKOpxTtP/CBCnNurageO2yd+X7kJeixsP2ts+ZiSRMyQ1ycPb9ul1M0V+O5+O3ze/d8/n7SRfphh3h+3mtDvb0ySPkzy8HE+bb6fjz8Pz/P76dEFenn4cf11WeJ95lUq7kCJ/zB8CMzH//fR1Jux3hxtCUMoyMFqlKPcJEvvvKyFSjfcJqVHigVCVCthBM3EaCZES2CEXKmUglEw53yeURiGOBKbY7hNqpTweKQslsEOztI5BW1SpAEKl5ghMGoBwi7CdkZQEnalRHNOUmDI6U6Yy7iAmDVCuiVdOAilw3zqvsUCpFydcCUJFgdTazXklWNBA6lyp5rGECmkFBKYaRkKCMahQcIQAvZEy6RjD1b+f47m7/2pv6G5RCiPeChRYz0QNo2oWMFj/ouloPKEMzm/LqXMFNXAe+y0er8AT5oCgDh8TKDVL35j/QAU4wvTP6vACyiZE4rFrMzWQn+btYJ0Cdbu++QKPIDtmBg9nABcS9nA0b6j+z+rmNL86artMUlziGRTWqoNiXVdwbLPVYYQiaug+VOlT7d8Smbpun3u+W2SBCwh1papVOFg99bGwwNEdYmUxoQpCzf7GYbMXJHLld+sewDOVODt4Aqqub1jUQO9oVD0cJdImQfG13ZALlNjjCwg2tO7wGzxqreoHNEOpbDRUX4FoVEnt9bzgFRkt+3xGWOFa/KjCZrBrHfsq1GF9e1gu3y+7/X6+u9/+95d1+zRf9OXxDw==);fillColor=none;" vertex="1" parent="1">
          <mxGeometry x="698" y="204.75" width="34.125" height="245.25" as="geometry" />
        </mxCell>
        <mxCell id="WaN_mvOq7KSIRF2AP4x1-57" value="Few Numeric feature scenario" style="rounded=0;whiteSpace=wrap;html=1;" vertex="1" parent="1">
          <mxGeometry x="127" y="8.25" width="120" height="60" as="geometry" />
        </mxCell>
        <mxCell id="WaN_mvOq7KSIRF2AP4x1-58" value="Multiple features with both numeric &amp;amp; nominal" style="rounded=0;whiteSpace=wrap;html=1;" vertex="1" parent="1">
          <mxGeometry x="25" y="650" width="120" height="60" as="geometry" />
        </mxCell>
        <mxCell id="WaN_mvOq7KSIRF2AP4x1-59" value="No Label:&amp;nbsp; PCA&lt;br&gt;Label:&amp;nbsp; &amp;nbsp; &amp;nbsp; &amp;nbsp; LDA" style="text;html=1;align=center;verticalAlign=middle;resizable=0;points=[];autosize=1;strokeColor=none;fillColor=none;" vertex="1" parent="1">
          <mxGeometry x="35" y="730" width="100" height="30" as="geometry" />
        </mxCell>
        <mxCell id="WaN_mvOq7KSIRF2AP4x1-60" value="Timeseries: Multivariate models (e.g:VAR) &amp;amp; RNN-LSTM &amp;amp; Regression &amp;amp; Attention Mechanism" style="text;whiteSpace=wrap;html=1;" vertex="1" parent="1">
          <mxGeometry x="44.31" y="770" width="675.69" height="30" as="geometry" />
        </mxCell>
      </root>
    </mxGraphModel>
  </diagram>
</mxfile>
